<svg id="Capa_1" enable-background="new 0 0 512 512" height="512" viewBox="0 0 512 512" width="512" xmlns="http://www.w3.org/2000/svg"><g id="XMLID_1768_"><g id="XMLID_1025_"><path id="XMLID_1410_" d="m475 0h-438c-5.522 0-10 4.477-10 10v492c0 5.522 4.478 10 10 10h44c5.522 0 10-4.478 10-10v-30h330v30c0 5.522 4.478 10 10 10h44c5.522 0 10-4.478 10-10v-492c0-5.523-4.478-10-10-10zm-98 408h-44v-28h44zm10-48h-64c-5.522 0-10 4.478-10 10v38h-23.016v-38c0-5.522-4.478-10-10-10h-64c-5.522 0-10 4.478-10 10v38h-114.984v-72h330v72h-24v-38c0-5.522-4.478-10-10-10zm-117.016 48h-44v-28h44zm-178.984-208h119.984c5.522 0 10-4.477 10-10s-4.478-10-10-10h-119.984v-24h330v24h-120.017c-5.522 0-10 4.477-10 10s4.478 10 10 10h120.017v72h-131.016v-38c0-5.523-4.478-10-10-10h-48c-5.522 0-10 4.477-10 10v38h-23.016v-38c0-5.523-4.478-10-10-10h-64c-5.522 0-10 4.477-10 10v38h-23.968zm87.969-64h-44v-28h44zm91.015 0h-28v-28h28zm107.016 0h-44v-28h44zm-107.016 136h-28v-28h28zm-91.015 0h-44v-28h44zm-87.969 20h330v24h-330zm330-156h-24v-38c0-5.523-4.478-10-10-10h-64c-5.522 0-10 4.477-10 10v38h-23.016v-38c0-5.523-4.478-10-10-10h-48c-5.522 0-10 4.477-10 10v38h-23.016v-38c0-5.523-4.478-10-10-10h-64c-5.522 0-10 4.477-10 10v38h-23.968v-72h330zm0-92h-330v-24h330zm-350 448h-24v-472h24zm20-40v-24h330v24zm374 40h-24v-472h24z"/><path id="XMLID_1586_" d="m256 200c2.63 0 5.21-1.07 7.069-2.93 1.86-1.86 2.931-4.44 2.931-7.07s-1.07-5.21-2.931-7.07c-1.859-1.86-4.439-2.93-7.069-2.93s-5.21 1.07-7.07 2.93-2.93 4.44-2.93 7.07 1.069 5.21 2.93 7.07 4.44 2.93 7.07 2.93z"/></g></g></svg>