<svg id="Layer_5" enable-background="new 0 0 64 64" height="512" viewBox="0 0 64 64" width="512" xmlns="http://www.w3.org/2000/svg"><g><path d="m60 7h-56c-1.654 0-3 1.346-3 3v9 2 33c0 1.654 1.346 3 3 3h56c1.654 0 3-1.346 3-3v-33-2-9c0-1.654-1.346-3-3-3zm-57 3c0-.551.448-1 1-1h56c.552 0 1 .449 1 1v5.556c-.591-.344-1.268-.556-2-.556-2.206 0-4 1.794-4 4h-4c0-2.206-1.794-4-4-4s-4 1.794-4 4h-4v-4c0-2.206-1.794-4-4-4s-4 1.794-4 4v4h-4c0-2.206-1.794-4-4-4s-4 1.794-4 4h-4v-4c0-2.206-1.794-4-4-4s-4 1.794-4 4v4h-4zm58 21h-58v-6.556c.591.344 1.268.556 2 .556 2.206 0 4-1.794 4-4h4v4c0 2.206 1.794 4 4 4s4-1.794 4-4v-4h4c0 2.206 1.794 4 4 4s4-1.794 4-4h4v4c0 2.206 1.794 4 4 4s4-1.794 4-4v-4h4v2c0 2.206 1.794 4 4 4s4-1.794 4-4v-2h4zm-58-10h4c0 1.103-.897 2-2 2s-2-.897-2-2zm10-2h-4v-4c0-1.103.897-2 2-2s2 .897 2 2zm2 2h4v4c0 1.103-.897 2-2 2s-2-.897-2-2zm6-2c0-1.103.897-2 2-2s2 .897 2 2zm6 2h4c0 1.103-.897 2-2 2s-2-.897-2-2zm10-2h-4v-4c0-1.103.897-2 2-2s2 .897 2 2zm2 2h4v4c0 1.103-.897 2-2 2s-2-.897-2-2zm12 0h4v2c0 1.103-.897 2-2 2s-2-.897-2-2zm-6-2c0-1.103.897-2 2-2s2 .897 2 2zm12 0c0-1.103.897-2 2-2s2 .897 2 2zm3 36h-56c-.552 0-1-.449-1-1v-21h58v21c0 .551-.448 1-1 1z"/><path d="m17 41v-3c0-1.654-1.346-3-3-3s-3 1.346-3 3v3c-1.103 0-2 .897-2 2v2c0 1.103.897 2 2 2v3c0 1.654 1.346 3 3 3s3-1.346 3-3v-3c1.103 0 2-.897 2-2v-2c0-1.103-.897-2-2-2zm-4-3c0-.551.448-1 1-1s1 .449 1 1v3h-2zm2 12c0 .551-.448 1-1 1s-1-.449-1-1v-3h2zm-4-5v-2h6l.001 2z"/><path d="m29 35h-6c-1.103 0-2 .897-2 2v2c0 1.103.897 2 2 2v9c0 1.654 1.346 3 3 3s3-1.346 3-3v-9c1.103 0 2-.897 2-2v-2c0-1.103-.897-2-2-2zm-2 15c0 .551-.448 1-1 1s-1-.449-1-1v-9h2zm2-11h-6l-.001-2h.001 6z"/><path d="m41 43v-5c0-1.654-1.346-3-3-3s-3 1.346-3 3v5c-1.103 0-2 .897-2 2v2c0 1.103.897 2 2 2v1c0 1.654 1.346 3 3 3s3-1.346 3-3v-1c1.103 0 2-.897 2-2v-2c0-1.103-.897-2-2-2zm-4-5c0-.551.448-1 1-1s1 .449 1 1v5h-2zm2 12c0 .551-.448 1-1 1s-1-.449-1-1v-1h2zm-4-3v-2h6l.001 2z"/><path d="m53 47v-9c0-1.654-1.346-3-3-3s-3 1.346-3 3v9c-1.103 0-2 .897-2 2v2c0 1.103.897 2 2 2h6c1.103 0 2-.897 2-2v-2c0-1.103-.897-2-2-2zm-4-9c0-.551.448-1 1-1s1 .449 1 1v9h-2zm-2 13v-2h6l.001 2z"/></g></svg>