<?xml version="1.0" encoding="iso-8859-1"?>
<!-- Generator: Adobe Illustrator 19.0.0, SVG Export Plug-In . SVG Version: 6.00 Build 0)  -->
<svg version="1.1" id="Capa_1" xmlns="http://www.w3.org/2000/svg" xmlns:xlink="http://www.w3.org/1999/xlink" x="0px" y="0px"
	 viewBox="0 0 480 480" style="enable-background:new 0 0 480 480;" xml:space="preserve">
<g>
	<g>
		<path d="M472,80H280c-4.418,0-8,3.582-8,8v72c0.003,4.418,3.588,7.997,8.006,7.994c0.857-0.001,1.709-0.139,2.522-0.41
			l10.056-3.352c10.918-3.574,22.665,2.38,26.238,13.298c3.573,10.918-2.38,22.665-13.298,26.238c-4.204,1.376-8.737,1.376-12.941,0
			l-10.056-3.352c-4.192-1.396-8.722,0.87-10.118,5.062c-0.271,0.813-0.409,1.665-0.41,2.522v64h-64
			c-4.418,0.003-7.997,3.588-7.994,8.006c0.001,0.857,0.139,1.709,0.41,2.522l3.352,10.056c3.574,10.918-2.38,22.665-13.298,26.238
			c-10.918,3.574-22.665-2.38-26.238-13.298c-1.376-4.204-1.376-8.737,0-12.941l3.352-10.056c1.396-4.192-0.87-8.722-5.062-10.118
			c-0.813-0.271-1.665-0.409-2.522-0.41H88c-4.418,0-8,3.582-8,8v192c0,4.418,3.582,8,8,8h384c4.418,0,8-3.582,8-8V88
			C480,83.582,476.418,80,472,80z M272.41,397.478c-0.271,0.813-0.409,1.665-0.41,2.522v64H96V288h52.904
			c-6.113,19.383,4.645,40.052,24.028,46.164c19.383,6.113,40.052-4.645,46.164-24.028c2.272-7.204,2.272-14.933,0-22.137H272v64
			c0.003,4.418,3.588,7.997,8.006,7.994c0.857-0.001,1.709-0.139,2.522-0.41l10.056-3.352c10.918-3.573,22.665,2.38,26.238,13.298
			c3.573,10.918-2.38,22.665-13.298,26.238c-4.204,1.376-8.737,1.376-12.941,0l-10.056-3.352
			C278.336,391.02,273.806,393.286,272.41,397.478z M464,464H288v-52.904c19.383,6.113,40.052-4.645,46.164-24.028
			c6.113-19.383-4.645-40.052-24.028-46.164c-7.204-2.272-14.933-2.272-22.137,0V288h64c4.418-0.003,7.997-3.588,7.994-8.006
			c-0.001-0.857-0.139-1.709-0.41-2.522l-3.352-10.056c-3.573-10.918,2.38-22.665,13.298-26.238
			c10.918-3.573,22.665,2.38,26.238,13.298c1.376,4.204,1.376,8.737,0,12.941l-3.352,10.056c-1.396,4.192,0.87,8.722,5.062,10.118
			c0.813,0.271,1.665,0.409,2.522,0.41h64V464z M464,272h-52.904c6.113-19.383-4.645-40.052-24.028-46.164
			c-19.383-6.113-40.052,4.645-46.164,24.028c-2.272,7.204-2.272,14.933,0,22.137H288v-52.904
			c11.111,3.601,23.275,1.658,32.712-5.224c16.546-11.802,20.392-34.783,8.59-51.329c-9.32-13.066-26.033-18.585-41.302-13.639V96
			h176V272z"/>
	</g>
</g>
<g>
	<g>
		<path d="M230.137,68.904c-7.204-2.272-14.933-2.272-22.137,0V8c0-4.418-3.582-8-8-8H8C3.582,0,0,3.582,0,8v192
			c0,4.418,3.582,8,8,8h60.904c-6.113,19.383,4.645,40.052,24.028,46.164s40.052-4.645,46.164-24.028
			c2.272-7.204,2.272-14.933,0-22.137H200c4.418,0,8-3.582,8-8v-60.904c19.383,6.113,40.052-4.645,46.164-24.028
			C260.277,95.685,249.52,75.017,230.137,68.904z M225.525,123.768c-4.204,1.376-8.737,1.376-12.941,0l-10.056-3.352
			c-4.192-1.396-8.722,0.87-10.118,5.062c-0.271,0.813-0.409,1.665-0.41,2.522v64h-64c-4.418,0.003-7.997,3.588-7.994,8.006
			c0.001,0.857,0.139,1.709,0.41,2.522l3.352,10.056c3.574,10.918-2.38,22.665-13.298,26.238
			c-10.918,3.573-22.665-2.38-26.238-13.298c-1.376-4.204-1.376-8.737,0-12.941l3.352-10.056c1.396-4.192-0.87-8.722-5.062-10.118
			c-0.813-0.271-1.665-0.409-2.522-0.41H16V16h176v64c0.003,4.418,3.588,7.997,8.006,7.994c0.857-0.001,1.709-0.139,2.522-0.41
			l10.056-3.352c10.918-3.573,22.665,2.38,26.238,13.298C242.396,108.447,236.442,120.195,225.525,123.768z"/>
	</g>
</g>
<g>
</g>
<g>
</g>
<g>
</g>
<g>
</g>
<g>
</g>
<g>
</g>
<g>
</g>
<g>
</g>
<g>
</g>
<g>
</g>
<g>
</g>
<g>
</g>
<g>
</g>
<g>
</g>
<g>
</g>
</svg>
